#!OML:ASF F:\VICON\USERDATA\INSTALL\rory3\rory3.ASF
:FULLY-SPECIFIED
:DEGREES
3497
root -1.88995 15.839 -0.917863 6.67281 -82.2172 -4.61626
lowerback 12.8214 1.02994 -0.830214
upperback 2.92257 1.3152 4.59024
thorax -4.24395 0.605585 5.09662
lowerneck -22.708 10.0071 -4.77433
upperneck 21.7902 15.5773 -0.0909419
head 10.3317 6.67289 3.03706
rclavicle -1.27222e-014 -2.70347e-014
rhumerus -35.544 13.3959 -82.7169
rradius 133.561
rwrist -6.03313
rhand -10.7971 24.4294
rfingers 7.12502
rthumb 15.2159 -4.99103
lclavicle -1.27222e-014 -2.70347e-014
lhumerus 1.92754 19.1162 56.5658
lradius 117.338
lwrist -14.5006
lhand -10.2466 7.6174
lfingers 7.12502
lthumb 15.7462 36.9969
rfemur -9.61107 11.8378 3.09301
rtibia 52.6103
rfoot -27.9296 12.7218
rtoes -17.6364
lfemur -38.7204 0.979258 0.633264
ltibia 41.743
lfoot 0.199201 -1.828
ltoes -26.0865
3498
root -1.94916 15.8119 -0.875799 9.50145 -80.1084 -7.71038
lowerback 12.9745 0.830694 -1.36008
upperback 2.7025 1.01677 5.14358
thorax -4.5505 0.474904 6.05079
lowerneck -22.7492 9.97989 -5.31853
upperneck 21.9282 15.7021 0.0407608
head 10.3285 6.69422 3.18185
rclavicle 5.96354e-015 -1.11319e-014
rhumerus -35.5103 13.964 -82.0822
rradius 134.722
rwrist -7.48993
rhand -9.76962 23.9173
rfingers 7.12502
rthumb 16.2055 -5.42534
lclavicle 5.96354e-015 -1.11319e-014
lhumerus 6.81829 20.7729 55.5079
lradius 109.929
lwrist -14.2926
lhand -8.88069 7.53919
lfingers 7.12502
lthumb 17.0613 36.81
rfemur -9.20327 10.9372 4.19582
rtibia 54.2732
rfoot -26.6558 11.7716
rtoes -18.0925
lfemur -39.5354 0.223623 0.725684
ltibia 41.8368
lfoot 0.135657 -1.86085
ltoes -25.8137
3499
root -2.0222 15.7895 -0.838374 8.22993 -77.7281 -6.95158
lowerback 13.255 0.654763 -2.56454
upperback 2.5622 0.650159 5.57249
thorax -4.82802 0.323577 7.28867
lowerneck -22.7124 9.90622 -5.86868
upperneck 21.9964 15.7531 0.174449
head 10.2873 6.68755 3.30934
rclavicle -1.19271e-015 5.40694e-014
rhumerus -35.2412 14.4903 -81.3413
rradius 135.892
rwrist -8.84997
rhand -8.60781 24.0958
rfingers 7.12502
rthumb 17.3239 -5.15208
lclavicle -1.19271e-015 5.40694e-014
lhumerus 12.1827 21.9555 55.1233
lradius 101.183
lwrist -14.7226
lhand -8.09409 7.05517
lfingers 7.12502
lthumb 17.8183 36.2589
rfemur -8.28017 9.77784 4.84014
rtibia 55.7666
rfoot -25.9733 9.6152
rtoes -22.2989
lfemur -40.0214 -0.961658 0.256648
ltibia 41.8776
lfoot 0.0431949 -2.3258
ltoes -25.8114
3500
root -2.11027 15.7706 -0.80109 5.49474 -75.1517 -4.84061
lowerback 13.4729 0.45494 -3.85948
upperback 2.52659 0.215124 5.62203
thorax -4.92492 0.136705 8.1867
lowerneck -22.7098 9.85679 -5.96916
upperneck 22.0491 15.7275 0.159313
head 10.3009 6.66151 3.31737
rclavicle -1.51076e-014 5.56597e-014
rhumerus -34.7687 14.9758 -81.08
rradius 137.012
rwrist -9.56433
rhand -7.65926 24.7283
rfingers 7.12502
rthumb 18.2367 -4.43681
lclavicle -1.51076e-014 5.56597e-014
lhumerus 18.2218 22.6793 55.2246
lradius 91.4388
lwrist -15.5652
lhand -7.91827 6.72286
lfingers 7.12502
lthumb 17.9875 35.9111
rfemur -6.93235 8.39227 5.05883
rtibia 56.9854
rfoot -25.2837 7.80212
rtoes -25.5006
lfemur -40.2699 -2.486 -0.536412
ltibia 42.0255
lfoot -0.239818 -3.43249
ltoes -25.974
3501
root -2.19593 15.7451 -0.769945 4.41448 -72.1774 -4.17521
lowerback 13.3499 0.0490401 -4.11773
upperback 2.56111 -0.368718 5.15335
thorax -4.72148 -0.153506 7.91781
lowerneck -22.958 9.80874 -5.57208
upperneck 22.0732 15.496 0.361994
head 10.3732 6.60997 3.31652
rclavicle 4.8901e-014 2.8625e-014
rhumerus -33.909 15.2531 -81.728
rradius 138.071
rwrist -9.48837
rhand -7.12223 25.5196
rfingers 7.12502
rthumb 18.7533 -3.59644
lclavicle 4.8901e-014 2.8625e-014
lhumerus 24.7289 22.7524 55.3381
lradius 81.787
lwrist -17.0011
lhand -7.73766 8.33055
lfingers 7.12502
lthumb 18.1613 37.5027
rfemur -5.63473 6.84419 5.56126
rtibia 57.9166
rfoot -24.2742 7.06949
rtoes -25.1282
lfemur -40.9968 -4.03272 -0.981182
ltibia 42.4196
lfoot -0.528985 -5.09187
ltoes -25.6343
3502
root -2.28242 15.7113 -0.737588 4.81415 -68.9366 -4.84245
lowerback 13.475 -0.197178 -4.48047
upperback 2.26076 -0.725299 5.29481
thorax -5.04283 -0.297763 8.3614
lowerneck -23.1409 9.51014 -5.91977
upperneck 22.3626 15.1583 0.657339
head 10.4686 6.44541 3.44508
rclavicle 2.42517e-014 -6.99722e-014
rhumerus -33.2052 15.6004 -81.0439
rradius 139.494
rwrist -9.80573
rhand -6.55185 26.2329
rfingers 7.12502
rthumb 19.3018 -2.82916
lclavicle 2.42517e-014 -6.99722e-014
lhumerus 29.868 22.0584 56.5944
lradius 73.9005
lwrist -19.7339
lhand -5.51692 13.612
lfingers 7.12502
lthumb 20.2967 42.5714
rfemur -4.344 5.28436 6.53382
rtibia 58.5609
rfoot -23.3458 6.62334
rtoes -24.219
lfemur -42.2745 -5.39699 -1.03074
ltibia 43.0658
lfoot -0.563126 -7.0687
ltoes -25.1754
3503
root -2.37547 15.6741 -0.700298 5.31092 -65.631 -5.5058
lowerback 13.7093 -0.31765 -5.23088
upperback 1.77764 -0.952786 5.86374
thorax -5.62554 -0.346567 9.50857
lowerneck -23.2828 9.07034 -6.8075
upperneck 22.7835 14.8399 0.874188
head 10.5751 6.22411 3.63091
rclavicle -2.00773e-014 4.53229e-014
rhumerus -32.4697 16.0887 -79.4409
rradius 141.324
rwrist -10.4723
rhand -5.75684 26.5814
rfingers 7.12502
rthumb 20.0661 -2.40244
lclavicle -2.00773e-014 4.53229e-014
lhumerus 33.4734 20.9676 58.4278
lradius 68.3449
lwrist -23.1992
lhand -5.72354 14.7173
lfingers 7.12502
lthumb 20.0981 43.6977
rfemur -3.02941 3.75394 7.56735
rtibia 58.9315
rfoot -22.6256 6.0493
rtoes -25.0901
lfemur -43.7697 -6.58603 -1.1202
ltibia 43.8389
lfoot -0.642079 -9.24276
ltoes -26.1121
3504
root -2.46571 15.6433 -0.658901 5.57253 -62.1652 -5.79006
lowerback 13.689 -0.582398 -5.55517
upperback 1.46142 -1.32931 6.01268
thorax -5.86654 -0.496636 9.949
lowerneck -23.6899 8.68935 -7.31341
upperneck 22.9363 14.4666 1.14259
head 10.6607 6.03081 3.77678
rclavicle 5.34731e-014 3.18055e-014
rhumerus -30.9664 16.4325 -78.7984
rradius 142.982
rwrist -10.8607
rhand -4.41135 26.8281
rfingers 7.12502
rthumb 21.3589 -2.01473
lclavicle 5.34731e-014 3.18055e-014
lhumerus 35.5211 19.7549 60.2598
lradius 67.1482
lwrist -28.2672
lhand -4.84316 12.0476
lfingers 7.12502
lthumb 20.9441 40.9368
rfemur -1.74545 2.20287 8.5526
rtibia 59.0566
rfoot -22.0553 5.56648
rtoes -25.737
lfemur -45.3766 -7.99654 -1.28377
ltibia 44.5899
lfoot -0.660944 -11.238
ltoes -25.5371
3505
root -2.55424 15.6158 -0.611864 5.66012 -58.6574 -5.86684
lowerback 13.7705 -0.844 -5.68034
upperback 1.2302 -1.68734 5.99438
thorax -6.08178 -0.647227 10.0811
lowerneck -24.4238 8.28155 -7.68163
upperneck 22.9139 14.0618 1.30496
head 10.7664 5.82593 3.87315
rclavicle -3.83654e-014 1.35174e-014
rhumerus -28.7574 16.8281 -78.2325
rradius 144.34
rwrist -10.9902
rhand -3.27785 27.1603
rfingers 7.12502
rthumb 22.4473 -1.55524
lclavicle -3.83654e-014 1.35174e-014
lhumerus 36.0005 17.7598 61.2268
lradius 68.671
lwrist -30.1594
lhand -4.51552 10.8675
lfingers 7.12502
lthumb 21.2588 39.7216
rfemur -0.403786 0.723192 9.54652
rtibia 58.9776
rfoot -21.6999 5.07709
rtoes -25.6162
lfemur -46.9191 -9.66463 -1.43921
ltibia 45.1908
lfoot -0.465958 -12.9326
ltoes -23.9535
3506
root -2.64338 15.5836 -0.569916 6.1219 -55.5223 -6.15259
lowerback 13.7311 -0.949288 -5.59726
upperback 0.996083 -1.80501 5.90338
thorax -6.29239 -0.68489 9.95756
lowerneck -25.1773 7.84716 -7.98134
upperneck 22.6947 13.6215 1.34638
head 10.8229 5.60671 3.90219
rclavicle -2.84262e-014 -3.49861e-014
rhumerus -26.0781 17.1224 -77.4187
rradius 145.465
rwrist -10.9892
rhand -2.59937 27.1245
rfingers 7.12502
rthumb 23.0984 -1.51092
lclavicle -2.84262e-014 -3.49861e-014
lhumerus 35.7967 15.0323 61.8589
lradius 71.7218
lwrist -28.0315
lhand -5.58058 10.6552
lfingers 7.12502
lthumb 20.2355 39.6211
rfemur 0.604198 -0.51912 10.6612
rtibia 58.7897
rfoot -21.4289 4.68728
rtoes -25.3197
lfemur -48.3875 -10.79 -1.50183
ltibia 45.5974
lfoot -0.409927 -14.6734
ltoes -23.5475
